<svg width="16" height="16" viewBox="0 0 16 16" fill="none" xmlns="http://www.w3.org/2000/svg">
<path d="M6.35484 6.01876C8.01688 6.01876 9.36422 4.67142 9.36422 3.00938C9.36422 1.34735 8.01688 0 6.35484 0C4.69281 0 3.34546 1.34735 3.34546 3.00938C3.34546 4.67142 4.69281 6.01876 6.35484 6.01876Z" fill="#4ABE84"/>
<path d="M7.24258 14.8062C7.07683 14.6423 6.96867 14.4291 6.93431 14.1985C6.89995 13.9679 6.94123 13.7324 7.05198 13.5273L7.31781 13.0257L6.77111 12.8602C6.54817 12.7904 6.35408 12.6498 6.2183 12.4597C6.08252 12.2696 6.01247 12.0404 6.01876 11.8069V10.7787C6.01834 10.5462 6.09272 10.3197 6.23091 10.1328C6.3691 9.94581 6.56377 9.80826 6.78616 9.74045L7.33286 9.57494L7.07205 9.07338C6.96454 8.87103 6.92364 8.63993 6.95516 8.41298C6.98668 8.18603 7.08902 7.97482 7.24759 7.80944C6.86173 7.75885 6.47312 7.73205 6.08397 7.72918C4.93454 7.70213 3.79331 7.92904 2.74167 8.39374C1.69002 8.85844 0.753876 9.54948 0 10.4176V14.3047C0 14.4377 0.0528431 14.5653 0.146905 14.6593C0.240966 14.7534 0.368541 14.8062 0.501564 14.8062H7.24258Z" fill="#4ABE84"/>
<path d="M15.8995 10.6131L14.8963 10.3122C14.8268 10.0645 14.7292 9.82552 14.6054 9.59997L15.107 8.66707C15.1264 8.63244 15.1335 8.59227 15.1271 8.5531C15.1207 8.51393 15.1012 8.47808 15.0719 8.45139L14.3446 7.71911C14.3166 7.69185 14.2809 7.67386 14.2423 7.66758C14.2037 7.6613 14.1641 7.66703 14.1289 7.684L13.201 8.18557C12.9726 8.06149 12.7324 7.96068 12.4838 7.88463L12.1779 6.8815C12.1644 6.84451 12.1398 6.8126 12.1075 6.79015C12.0751 6.7677 12.0366 6.75581 11.9973 6.75611H10.954C10.9149 6.7572 10.8771 6.7703 10.8457 6.79363C10.8143 6.81696 10.7908 6.84939 10.7785 6.88652L10.4775 7.88964C10.2242 7.96336 9.98015 8.06602 9.75028 8.1956L8.84245 7.69403C8.80716 7.67527 8.76686 7.66809 8.72725 7.67349C8.68765 7.67889 8.65075 7.6966 8.62176 7.72413L7.88447 8.44638C7.85543 8.47436 7.8363 8.51103 7.82997 8.55085C7.82364 8.59066 7.83044 8.63146 7.84936 8.66707L8.35092 9.57991C8.21656 9.80646 8.10724 10.047 8.0249 10.2971L7.02178 10.6031C6.98383 10.6141 6.95053 10.6372 6.92697 10.6689C6.90342 10.7006 6.89091 10.7392 6.89137 10.7786V11.8069C6.89091 11.8464 6.90342 11.8849 6.92697 11.9166C6.95053 11.9483 6.98383 11.9714 7.02178 11.9824L8.0249 12.2884C8.10009 12.534 8.20096 12.7711 8.32584 12.9956L7.82428 13.9485C7.80536 13.9841 7.79856 14.0249 7.80489 14.0648C7.81123 14.1046 7.83036 14.1412 7.85939 14.1692L8.60672 14.8965C8.6357 14.924 8.6726 14.9417 8.71221 14.9471C8.75181 14.9525 8.79211 14.9453 8.82741 14.9266L9.76533 14.425C9.98854 14.5451 10.2239 14.6409 10.4675 14.7109L10.7685 15.7391C10.7811 15.777 10.8053 15.81 10.8377 15.8334C10.8701 15.8568 10.909 15.8695 10.949 15.8695H11.9772C12.0163 15.8684 12.0542 15.8553 12.0856 15.832C12.117 15.8087 12.1404 15.7762 12.1528 15.7391L12.4537 14.7109C12.6944 14.6418 12.9266 14.5459 13.1459 14.425L14.0938 14.9266C14.1291 14.9453 14.1694 14.9525 14.209 14.9471C14.2486 14.9417 14.2855 14.924 14.3145 14.8965L15.0468 14.1692C15.0743 14.1402 15.092 14.1033 15.0974 14.0637C15.1028 14.0241 15.0956 13.9838 15.0769 13.9485L14.5753 13.0056C14.6953 12.7859 14.7912 12.5538 14.8612 12.3134L15.8643 12.0075C15.902 11.9954 15.9351 11.9721 15.9593 11.9407C15.9835 11.9094 15.9976 11.8715 15.9998 11.8319V10.7937C16.001 10.7573 15.9923 10.7213 15.9746 10.6895C15.957 10.6577 15.931 10.6313 15.8995 10.6131ZM11.4706 12.9805C11.1391 12.9815 10.8147 12.8841 10.5386 12.7006C10.2624 12.5172 10.0469 12.2559 9.91937 11.9499C9.79181 11.6438 9.75792 11.3068 9.82199 10.9816C9.88606 10.6563 10.0452 10.3573 10.2793 10.1225C10.5134 9.88773 10.8119 9.72768 11.137 9.66263C11.4621 9.59759 11.7991 9.63047 12.1055 9.75711C12.4119 9.88376 12.6739 10.0985 12.8582 10.3741C13.0425 10.6497 13.1409 10.9737 13.1409 11.3053C13.1409 11.7487 12.965 12.1741 12.652 12.4881C12.3389 12.8021 11.9141 12.9792 11.4706 12.9805Z" fill="#4ABE84"/>
</svg>
