<svg width="17" height="18" viewBox="0 0 17 18" fill="none" xmlns="http://www.w3.org/2000/svg">
<path d="M13.7817 13.3578V0.359619H11.7971V13.3578H8.82031L12.7894 18L16.7585 13.3578H13.7817Z" fill="#4ABE84"/>
<path d="M3.56363 7.0765H2.13883V1.66227L0.476562 2.18469V1.04485L3.37365 0H3.51613V7.0765H3.56363Z" fill="#DCDCDC"/>
<path d="M4.9868 17.9999H0.14248V17.0501L2.42216 14.6279C2.61213 14.4379 2.75461 14.248 2.8496 14.1055C2.94458 13.963 3.08706 13.8205 3.13456 13.678C3.22954 13.5356 3.27704 13.4406 3.27704 13.2981C3.32453 13.2031 3.32453 13.0606 3.32453 12.9656C3.32453 12.6332 3.22954 12.3957 3.08706 12.2058C2.94458 12.0158 2.70712 11.9208 2.42216 11.9208C2.27968 11.9208 2.08971 11.9683 1.99472 12.0158C1.85224 12.0633 1.75725 12.1583 1.66227 12.2532C1.56728 12.3482 1.51979 12.4907 1.47229 12.6332C1.4248 12.7757 1.4248 12.9182 1.4248 13.1081H0C0 12.7757 0.0474936 12.4907 0.189973 12.2058C0.28496 11.9208 0.474933 11.6833 0.664906 11.4459C0.902373 11.2559 1.13984 11.0659 1.4248 10.9234C1.70976 10.781 2.08971 10.7335 2.46965 10.7335C2.8496 10.7335 3.18205 10.781 3.46701 10.8759C3.75197 10.9709 3.98944 11.1134 4.17941 11.2559C4.36938 11.3984 4.51186 11.6358 4.60685 11.8733C4.70184 12.1108 4.74933 12.3957 4.74933 12.7282C4.74933 12.9656 4.70184 13.2031 4.65434 13.3931C4.60685 13.5831 4.46437 13.963 4.32189 14.2005C4.17941 14.4379 4.03693 14.6279 3.84696 14.8654C3.65698 15.1028 3.41952 15.3403 3.18205 15.5778L1.94723 16.8601H4.9868V17.9999Z" fill="#DCDCDC"/>
</svg>
