<svg width="36" height="36" viewBox="0 0 36 36" fill="none" xmlns="http://www.w3.org/2000/svg">
<rect x="1" y="1" width="34" height="34" rx="3" stroke="#E0E0E0" stroke-width="2"/>
<path d="M21.0474 26.2481L19.9644 25.7133L19.9944 18.0696C19.9944 18.0695 19.9944 18.0694 19.9944 18.0694C19.995 17.9326 20.05 17.8003 20.1494 17.7013L20.1507 17.7L26.8931 10.9379L27.7437 10.0848H26.5391H10.3239H9.11796L9.9701 10.9382L16.7229 17.7003L16.7239 17.7013C16.8232 17.8001 16.8781 17.9321 16.8789 18.0686V24.0456L15.7947 23.5101V18.4894V18.2827L15.6488 18.1363L8.79171 11.261L8.79159 11.2609C8.60903 11.078 8.50539 10.8342 8.5 10.5801V9.55561C8.5 9.41726 8.55559 9.28331 8.65658 9.18357C8.75778 9.08362 8.89634 9.02637 9.04211 9.02637H27.8C27.9458 9.02637 28.0843 9.08362 28.1855 9.18357C28.2865 9.28331 28.3421 9.41726 28.3421 9.55561V10.5801C28.3367 10.8342 28.2331 11.078 28.0505 11.2609L28.0504 11.261L21.1933 18.1363L21.0474 18.2827V18.4894V26.2481Z" fill="#DCDCDC" stroke="#E0E0E0"/>
</svg>
