<svg width="15" height="15" viewBox="0 0 15 15" fill="none" xmlns="http://www.w3.org/2000/svg">
<path d="M14.3837 8.70091C14.1743 8.63557 13.9474 8.65575 13.7528 8.75706C13.5581 8.85836 13.4113 9.03257 13.3445 9.2417C12.9517 10.4435 12.1859 11.4885 11.1586 12.2247C10.1313 12.961 8.89603 13.3499 7.63253 13.3351C6.06973 13.3529 4.56367 12.7498 3.44459 11.658C2.32552 10.5662 1.68477 9.07496 1.66286 7.51115C1.68477 5.94735 2.32552 4.45606 3.44459 3.3643C4.56367 2.27254 6.06973 1.66942 7.63253 1.68719C9.04395 1.68378 10.4119 2.17541 11.4987 3.07662L9.69448 2.77711C9.58635 2.7593 9.47577 2.76306 9.3691 2.78817C9.26243 2.81329 9.16177 2.85925 9.07291 2.92343C8.98405 2.9876 8.90875 3.06872 8.85133 3.16212C8.79391 3.25552 8.75551 3.35936 8.73833 3.46766C8.72054 3.57586 8.7243 3.68652 8.7494 3.79326C8.77449 3.90001 8.82042 4.00074 8.88455 4.08965C8.94869 4.17857 9.02975 4.25393 9.12309 4.31138C9.21642 4.36884 9.32019 4.40727 9.42842 4.42445L12.9537 5.00685H13.095C13.1914 5.00674 13.2871 4.98985 13.3777 4.95693C13.4082 4.94536 13.4363 4.92846 13.4609 4.90701C13.5205 4.88483 13.5765 4.85399 13.6271 4.81549L13.702 4.72397C13.702 4.68237 13.7768 4.64909 13.8101 4.59917C13.8433 4.54925 13.8101 4.51597 13.8516 4.48269C13.8746 4.43424 13.8941 4.38419 13.9098 4.33294L14.5334 1.00496C14.5541 0.895698 14.5532 0.783421 14.5306 0.674534C14.508 0.565648 14.4641 0.462285 14.4016 0.370349C14.3391 0.278412 14.259 0.199701 14.1661 0.13871C14.0732 0.0777198 13.9691 0.0356436 13.8599 0.0148844C13.7508 -0.00587485 13.6386 -0.00491066 13.5297 0.017722C13.4209 0.0403546 13.3176 0.0842123 13.2258 0.146791C13.0402 0.273175 12.9124 0.468141 12.8705 0.6888L12.6461 1.89519C11.2542 0.688168 9.4743 0.0235627 7.63253 0.0232043C5.62873 0.00545561 3.69973 0.783893 2.26881 2.1877C0.837894 3.59152 0.0219422 5.50603 0 7.51115C0.0219422 9.51627 0.837894 11.4308 2.26881 12.8346C3.69973 14.2384 5.62873 15.0169 7.63253 14.9991C9.25643 15.0241 10.8454 14.5266 12.1656 13.58C13.4858 12.6334 14.4673 11.2877 14.9657 9.7409C14.9973 9.63438 15.0072 9.52262 14.9949 9.41221C14.9825 9.3018 14.9482 9.19497 14.894 9.09804C14.8398 9.00111 14.7667 8.91603 14.679 8.84782C14.5914 8.77961 14.491 8.72966 14.3837 8.70091Z" fill="#A8B1BE"/>
</svg>
