<svg width="30" height="30" viewBox="0 0 30 30" fill="none" xmlns="http://www.w3.org/2000/svg">
<path d="M29.9944 19.5364C29.9944 19.4517 29.989 19.3676 29.9862 19.2829C29.9835 19.1982 29.9951 19.1019 29.9951 19.0096C29.9951 13.6348 29.9951 8.25848 29.9951 2.88052C29.9951 1.40541 29.0266 0.270561 27.5708 0.0396276C27.5394 0.0341617 27.5025 0.0396276 27.4901 0H2.502C2.39401 0.0778887 2.25732 0.0655905 2.13361 0.0970193C0.861644 0.427705 0.00865745 1.52908 0.00182262 2.86139C0.00182262 4.1486 0.00182262 5.43581 0.00182262 6.72302V20.5927C0.00182262 20.6767 0.00592352 20.7614 0.00797397 20.8462C0.0100244 20.9309 0.00182262 21.0006 0.00182262 21.0785C0.00182262 23.1329 -0.00227828 25.1881 0.00182262 27.2433C-0.000263701 27.9497 0.277976 28.6281 0.775526 29.1297C1.03881 29.4117 1.35874 29.6349 1.71434 29.7847C2.06994 29.9344 2.45318 30.0074 2.83896 29.9988C5.09446 29.994 7.35405 29.9988 9.61091 29.9988C15.4656 29.9988 21.3208 29.9988 27.1764 29.9988C27.8097 30.0056 28.4252 29.7896 28.9152 29.3886C29.665 28.7847 30.0067 27.9798 29.9999 27.0082C29.9855 24.5179 29.9951 22.0268 29.9944 19.5364ZM22.3039 20.2422C22.2567 20.3201 22.2656 20.4171 22.2642 20.5093C22.2472 21.5294 21.8275 22.3308 20.956 22.8774C19.2473 23.9487 17.4019 24.5486 15.3693 24.5062C14.3659 24.4851 13.3762 24.332 12.3865 24.1851C10.9212 23.9665 9.46191 23.7028 7.97465 23.6734C7.84466 23.6689 7.72164 23.6136 7.63213 23.5192C7.54262 23.4249 7.49381 23.2992 7.49622 23.1692C7.49998 23.1173 7.49998 23.0652 7.49622 23.0134C7.47161 22.8474 7.54338 22.7599 7.68212 22.6595C8.13049 22.3363 8.44284 21.8833 8.74904 21.4296C8.87524 21.2601 8.98164 21.0767 9.06618 20.8831C9.14204 20.8441 9.16255 20.7635 9.19946 20.6972C9.66491 19.8589 10.1092 19.0069 10.6587 18.2178C10.8285 17.972 11.0173 17.7399 11.2232 17.5236C11.5486 17.182 11.781 17.182 12.1063 17.5236C12.2881 17.8652 12.2806 17.9287 12.0154 18.2294C11.8208 18.4565 11.6427 18.6971 11.4823 18.9495C11.2267 19.3369 11.1816 19.7503 11.2731 20.1991C11.3415 20.5408 11.5465 20.8427 11.5807 21.1994C11.591 21.3142 11.6935 21.3845 11.8035 21.4242C11.9263 21.4678 12.0553 21.4909 12.1856 21.4925C12.4686 21.4959 12.4781 21.5021 12.5082 21.7747C12.5295 21.9044 12.4999 22.0373 12.4255 22.1457C12.3571 22.24 12.3448 22.3404 12.4296 22.4299C12.6346 22.6499 12.8663 22.8364 13.1814 22.8863C13.4118 22.9232 13.6407 22.9731 13.8704 23.0175C14.1855 23.0783 14.5026 23.1172 14.8156 23.0175C15.0166 22.9539 15.1676 22.9847 15.2838 23.1712C15.3206 23.2336 15.3722 23.2859 15.4341 23.3235C15.496 23.361 15.5662 23.3826 15.6386 23.3864C16.3535 23.4247 17.0547 23.3536 17.7252 23.0892C17.9754 22.9908 18.1039 22.7872 18.1223 22.5133C18.1353 22.3254 18.1633 22.1388 18.1845 21.9516C18.2242 21.6039 18.3028 21.2595 18.257 20.9049C18.1613 20.1759 17.7102 19.6751 17.186 19.2201C16.374 18.517 15.4356 18.0087 14.5252 17.456C13.0319 16.3268 11.6353 15.0753 10.3498 13.7146C9.88021 13.2206 9.46123 12.6733 9.19877 12.0331C9.01013 11.576 8.8871 11.0985 9.03474 10.6093C9.12775 10.3052 9.19879 9.99494 9.2473 9.68075C9.32574 9.15383 9.50289 8.64642 9.76948 8.18515C10.4154 7.06874 11.4201 6.45656 12.6565 6.18669C12.7261 6.1688 12.7987 6.16508 12.8698 6.17575C13.0558 6.2104 13.248 6.17118 13.4056 6.06644C13.569 5.96873 13.7603 5.98035 13.938 6.02818C14.289 6.12849 14.6579 6.14949 15.0179 6.08967C15.6823 5.97352 16.3022 6.14706 16.8811 6.447C17.596 6.81731 18.27 6.77085 18.9575 6.37867C19.4592 6.09308 19.9828 5.84165 20.4967 5.57997C20.7496 5.45153 20.9451 5.48842 21.1331 5.68314C21.3381 5.89495 21.3832 6.11221 21.2452 6.35544C20.6191 7.4616 20.2029 8.66136 19.6978 9.82218C19.6764 9.87626 19.6641 9.93352 19.6615 9.99162C19.6438 10.2458 19.6137 10.2724 19.3574 10.2717C19.1935 10.268 19.035 10.2128 18.9042 10.1139C18.0048 9.48261 17.0944 8.86428 16.2469 8.16533C15.6502 7.6734 14.9701 7.43154 14.2203 7.33725C14.1629 7.32974 14.1041 7.32359 14.0467 7.31539C13.5922 7.25185 13.2628 7.41446 13.0447 7.81962C12.9382 8.00688 12.8747 8.21554 12.859 8.43042C12.8433 8.64529 12.8757 8.86096 12.9538 9.06174C13.0333 9.27507 13.1414 9.47665 13.2751 9.66093C13.3755 9.79706 13.4454 9.95318 13.4801 10.1187C13.5341 10.366 13.6066 10.4152 13.8656 10.392C14.0255 10.3797 14.1697 10.353 14.2224 10.5744C14.247 10.6783 14.385 10.7158 14.4766 10.7753C14.5887 10.8477 14.6496 10.9358 14.586 11.0684C14.5375 11.1688 14.5778 11.2317 14.6646 11.2734C15.9489 11.8972 17.0855 12.7696 18.341 13.4406C18.4139 13.4833 18.4892 13.5216 18.5666 13.5554C18.8824 13.677 19.1284 13.8512 19.2241 14.2079C19.2747 14.3944 19.4291 14.5344 19.6007 14.6431C19.7838 14.7581 19.929 14.9244 20.0183 15.1213C20.5398 16.274 21.2575 17.3009 22.0688 18.2642C22.322 18.5457 22.4761 18.9023 22.5076 19.2795C22.5069 19.617 22.4843 19.945 22.3039 20.2422ZM14.3755 17.5277C14.3972 17.5273 14.4188 17.5241 14.4397 17.5181C14.4197 17.5238 14.399 17.5271 14.3782 17.5277H14.3755Z" fill="white"/>
<path d="M22.5075 19.2829C22.5075 19.617 22.4842 19.945 22.3024 20.2394C22.2553 20.3173 22.2642 20.4144 22.2628 20.5066C22.2457 21.5267 21.826 22.3281 20.9546 22.8747C19.2459 23.946 17.4005 24.5459 15.3678 24.5035C14.3645 24.4823 13.3748 24.3293 12.3851 24.1824C10.9197 23.9638 9.46046 23.7 7.9732 23.6706C7.84321 23.6662 7.72019 23.6108 7.63068 23.5165C7.54117 23.4221 7.49236 23.2964 7.49476 23.1664C7.49852 23.1146 7.49852 23.0625 7.49476 23.0106C7.47016 22.8446 7.54193 22.7572 7.68067 22.6567C8.12904 22.3336 8.44139 21.8806 8.74759 21.4269C8.87379 21.2574 8.98019 21.074 9.06473 20.8803C9.14059 20.8414 9.1611 20.7607 9.19801 20.6945C9.66346 19.8561 10.1077 19.0042 10.6572 18.215C10.827 17.9693 11.0158 17.7372 11.2218 17.5209C11.5471 17.1792 11.7795 17.1792 12.1049 17.5209C12.2867 17.8625 12.2791 17.926 12.014 18.2266C11.8194 18.4537 11.6412 18.6944 11.4808 18.9468C11.2252 19.3342 11.1801 19.7475 11.2717 20.1964C11.34 20.538 11.5451 20.84 11.5793 21.1967C11.5895 21.3114 11.692 21.3818 11.8021 21.4214C11.9248 21.4651 12.0539 21.4882 12.1841 21.4898C12.4671 21.4932 12.4767 21.4993 12.5067 21.7719C12.5281 21.9016 12.4984 22.0346 12.424 22.1429C12.3557 22.2372 12.3434 22.3377 12.4281 22.4272C12.6332 22.6472 12.8649 22.8337 13.18 22.8836C13.4103 22.9205 13.6393 22.9703 13.8689 23.0147C14.184 23.0755 14.5012 23.1145 14.8142 23.0147C15.0151 22.9512 15.1662 22.9819 15.2824 23.1685C15.3191 23.2309 15.3707 23.2832 15.4326 23.3207C15.4945 23.3583 15.5648 23.3799 15.6371 23.3837C16.352 23.4219 17.0533 23.3509 17.7238 23.0865C17.9739 22.9881 18.1024 22.7845 18.1209 22.5105C18.1339 22.3226 18.1619 22.1361 18.1831 21.9489C18.2227 21.6011 18.3013 21.2568 18.2555 20.9022C18.1598 20.1732 17.7087 19.6724 17.1845 19.2173C16.3725 18.5143 15.4341 18.0059 14.5237 17.4532C13.0305 16.3241 11.6338 15.0726 10.3483 13.7118C9.87876 13.2178 9.45978 12.6706 9.19732 12.0304C9.00868 11.5733 8.88565 11.0957 9.03329 10.6065C9.1263 10.3025 9.19734 9.99221 9.24585 9.67801C9.32428 9.15109 9.50144 8.64369 9.76803 8.18241C10.4139 7.06601 11.4186 6.45383 12.6551 6.18395C12.7247 6.16606 12.7972 6.16234 12.8683 6.17302C13.0544 6.20766 13.2466 6.16845 13.4042 6.0637C13.5675 5.966 13.7589 5.97761 13.9366 6.02544C14.2875 6.12575 14.6564 6.14676 15.0165 6.08693C15.6808 5.97078 16.3008 6.14432 16.8797 6.44426C17.5946 6.81458 18.2685 6.76812 18.9561 6.37594C19.4578 6.09035 19.9813 5.83892 20.4953 5.57724C20.7482 5.44879 20.9437 5.48569 21.1316 5.68041C21.3367 5.89221 21.3818 6.10948 21.2437 6.35271C20.6176 7.45887 20.2014 8.65862 19.6963 9.81944C19.6749 9.87353 19.6627 9.93079 19.6601 9.98888C19.6423 10.243 19.6122 10.2697 19.3559 10.269C19.1921 10.2653 19.0335 10.2101 18.9028 10.1112C18.0033 9.47987 17.0929 8.86155 16.2454 8.1626C15.6487 7.67067 14.9687 7.4288 14.2189 7.33452C14.1615 7.327 14.1027 7.32085 14.0453 7.31265C13.5908 7.24911 13.2613 7.41172 13.0433 7.81688C12.9367 8.00415 12.8733 8.21281 12.8575 8.42768C12.8418 8.64255 12.8742 8.85822 12.9524 9.059C13.0319 9.27234 13.1399 9.47391 13.2736 9.6582C13.374 9.79432 13.4439 9.95044 13.4787 10.116C13.5327 10.3633 13.6051 10.4125 13.8641 10.3893C14.0241 10.377 14.1683 10.3503 14.2209 10.5717C14.2455 10.6755 14.3836 10.7131 14.4752 10.7726C14.5873 10.845 14.6481 10.9331 14.5845 11.0657C14.536 11.1661 14.5763 11.229 14.6631 11.2706C15.9474 11.8944 17.084 12.7669 18.3396 13.4378C18.4124 13.4806 18.4877 13.5189 18.5651 13.5526C18.8809 13.6742 19.127 13.8485 19.2227 14.2051C19.2732 14.3916 19.4277 14.5317 19.5993 14.6403C19.7824 14.7554 19.9276 14.9217 20.0169 15.1186C20.5384 16.2712 21.256 17.2981 22.0673 18.2615C22.3223 18.5444 22.477 18.9033 22.5075 19.2829ZM10.675 9.58099C10.9518 9.41223 11.2273 9.24347 11.4562 9.00912C11.7864 8.67229 11.8861 8.26645 11.8226 7.81141C11.8137 7.75061 11.8185 7.64402 11.7009 7.70961C11.4959 7.8244 11.2826 7.94806 11.2129 8.18788C11.0913 8.59782 10.8766 8.97155 10.7208 9.36851C10.6942 9.43683 10.6285 9.50037 10.6764 9.58372L10.6545 9.56938C10.6545 9.56938 10.6545 9.57552 10.66 9.57621C10.6648 9.57867 10.6698 9.58073 10.675 9.58236V9.58099ZM16.1962 17.1259C16.2044 16.6955 16.27 16.5889 16.6432 16.4161C16.8698 16.3028 17.1033 16.204 17.3424 16.1202C17.8037 15.974 18.1947 15.7103 18.5795 15.4315C18.6923 15.3495 18.6875 15.2669 18.6246 15.1657C18.4982 14.9608 18.2316 14.9102 18.0095 15.0592C17.5727 15.3536 17.1449 15.6604 16.7047 15.9474C16.2226 16.267 15.6762 16.4769 15.104 16.5623C15.4854 16.7748 15.8121 16.9845 16.1962 17.1273V17.1259ZM10.6121 12.3255C10.8329 12.4075 11.0045 12.3536 11.1664 12.2695C11.7242 11.9798 12.1917 11.5658 12.6626 11.1586C12.6807 11.1475 12.6961 11.1324 12.7075 11.1145C12.719 11.0966 12.7262 11.0763 12.7287 11.0552C12.7312 11.0341 12.7289 11.0127 12.7219 10.9926C12.715 10.9725 12.7036 10.9543 12.6886 10.9393C12.6202 10.8532 12.5519 10.8709 12.4678 10.9222C11.826 11.3431 11.2327 11.8213 10.6121 12.3269V12.3255ZM12.5519 14.3752C12.5908 14.3595 12.6455 14.339 12.6988 14.3151C13.5256 13.9351 14.3144 13.4776 15.0548 12.9487C15.1081 12.9104 15.2304 12.8954 15.1634 12.784C15.104 12.6856 15.0117 12.6979 14.9249 12.7532C14.1252 13.2636 13.3215 13.7658 12.4794 14.2044C12.4405 14.2249 12.3844 14.242 12.4076 14.3001C12.4309 14.3582 12.478 14.3732 12.5519 14.3739V14.3752ZM11.5451 13.4133C11.5922 13.3921 11.6346 13.375 11.6749 13.3552C12.3748 13.015 13.0532 12.6324 13.7063 12.2094C13.7685 12.1684 13.8949 12.1356 13.8382 12.0318C13.8102 11.9797 13.7664 11.9379 13.7131 11.9123C13.6597 11.8868 13.5997 11.8788 13.5415 11.8896C13.4719 11.908 13.4094 11.9471 13.3625 12.0017C12.8326 12.5002 12.2393 12.9266 11.5977 13.2698C11.5684 13.2834 11.5403 13.2994 11.5136 13.3176C11.5007 13.3278 11.4856 13.3552 11.4911 13.3634C11.5064 13.3827 11.5246 13.3995 11.5451 13.4133ZM17.7593 17.9021C17.8277 17.9404 17.8817 17.9021 17.9329 17.8782C18.5351 17.6015 19.129 17.3077 19.7031 16.9756C19.7592 16.9435 19.8836 16.9189 19.7934 16.813C19.725 16.7297 19.6635 16.565 19.5043 16.69C18.9479 17.1259 18.3498 17.5051 17.7593 17.9021ZM20.0674 19.1319L20.0852 19.1606C20.3203 19.0923 20.5561 19.0199 20.7913 18.9468C20.8738 18.926 20.9481 18.8807 21.0045 18.8169C21.0292 18.7949 21.0442 18.764 21.0461 18.7309C21.048 18.6979 21.0367 18.6654 21.0148 18.6407C20.9614 18.5806 20.9109 18.6168 20.8596 18.6482C20.6826 18.7568 20.5042 18.8634 20.3265 18.972C20.2397 19.0267 20.1536 19.0807 20.0674 19.1319ZM16.5038 14.7715L17.2693 14.2188C17.313 14.1867 17.352 14.1505 17.3028 14.0924C17.2933 14.0789 17.281 14.0678 17.2666 14.0598C17.2522 14.0518 17.2362 14.0472 17.2198 14.0464C17.2034 14.0455 17.187 14.0484 17.1719 14.0548C17.1568 14.0613 17.1433 14.0711 17.1326 14.0835C16.9883 14.212 16.8441 14.3418 16.7068 14.4777C16.6241 14.5618 16.5113 14.6226 16.5038 14.7736V14.7715ZM10.1699 22.2871C10.3702 22.3178 10.5308 22.2734 10.6914 22.2481C10.7488 22.2393 10.8103 22.2256 10.8281 22.1573C10.8336 22.1285 10.8306 22.0986 10.8193 22.0715C10.808 22.0445 10.7889 22.0213 10.7646 22.0049C10.7391 21.9843 10.7071 21.9735 10.6743 21.9745C10.6416 21.9755 10.6103 21.9883 10.5862 22.0104L10.1699 22.2871ZM13.8956 14.9389C13.7247 15.0127 13.5238 15.0298 13.4855 15.1534C13.4472 15.2771 13.6297 15.3584 13.7404 15.4349C13.748 15.4397 13.7637 15.4349 13.7862 15.4295C13.7657 15.2703 13.8129 15.1234 13.8956 14.9382V14.9389ZM10.4652 11.0445V10.9878C10.3524 10.9878 10.2396 10.9878 10.1269 10.9878C10.0688 10.9878 10.0243 10.9987 10.0079 11.0561C9.99885 11.0904 9.99906 11.1265 10.0086 11.1608C10.018 11.195 10.0365 11.2261 10.0619 11.2508C10.1132 11.3055 10.1556 11.2604 10.1986 11.2324C10.2888 11.1702 10.377 11.106 10.4652 11.0424V11.0445ZM14.1956 15.8196C14.2729 15.9679 14.3966 16.0888 14.5319 16.1052C14.6454 16.1189 14.5886 15.9378 14.6317 15.8531C14.6317 15.8469 14.6228 15.8339 14.6153 15.8196H14.1956ZM15.2626 14.1689L14.5066 14.6171C14.807 14.5693 15.0775 14.4081 15.2626 14.1669V14.1689ZM15.3261 14.1395L15.3131 14.1505C15.3131 14.1546 15.32 14.1621 15.3241 14.1628C15.3282 14.1634 15.333 14.1566 15.3377 14.1525L15.3261 14.1395Z" fill="#303D4F"/>
</svg>
