<svg width="17" height="17" viewBox="0 0 17 17" fill="none" xmlns="http://www.w3.org/2000/svg">
<path d="M4.25 2.125C4.25 2.68859 4.02612 3.22909 3.6276 3.6276C3.22909 4.02612 2.68859 4.25 2.125 4.25C1.56141 4.25 1.02091 4.02612 0.622398 3.6276C0.223883 3.22909 0 2.68859 0 2.125C0 1.56141 0.223883 1.02091 0.622398 0.622398C1.02091 0.223883 1.56141 0 2.125 0C2.68859 0 3.22909 0.223883 3.6276 0.622398C4.02612 1.02091 4.25 1.56141 4.25 2.125Z" fill="#F5F7FA"/>
<path d="M4.25 8.5C4.25 9.06359 4.02612 9.60409 3.6276 10.0026C3.22909 10.4011 2.68859 10.625 2.125 10.625C1.56141 10.625 1.02091 10.4011 0.622398 10.0026C0.223883 9.60409 0 9.06359 0 8.5C0 7.93641 0.223883 7.39591 0.622398 6.9974C1.02091 6.59888 1.56141 6.375 2.125 6.375C2.68859 6.375 3.22909 6.59888 3.6276 6.9974C4.02612 7.39591 4.25 7.93641 4.25 8.5Z" fill="#F5F7FA"/>
<path d="M2.125 17C2.68859 17 3.22909 16.7761 3.6276 16.3776C4.02612 15.9791 4.25 15.4386 4.25 14.875C4.25 14.3114 4.02612 13.7709 3.6276 13.3724C3.22909 12.9739 2.68859 12.75 2.125 12.75C1.56141 12.75 1.02091 12.9739 0.622398 13.3724C0.223883 13.7709 0 14.3114 0 14.875C0 15.4386 0.223883 15.9791 0.622398 16.3776C1.02091 16.7761 1.56141 17 2.125 17Z" fill="#F5F7FA"/>
<path d="M10.625 2.125C10.625 2.68859 10.4011 3.22909 10.0026 3.6276C9.60409 4.02612 9.06359 4.25 8.5 4.25C7.93641 4.25 7.39591 4.02612 6.9974 3.6276C6.59888 3.22909 6.375 2.68859 6.375 2.125C6.375 1.56141 6.59888 1.02091 6.9974 0.622398C7.39591 0.223883 7.93641 0 8.5 0C9.06359 0 9.60409 0.223883 10.0026 0.622398C10.4011 1.02091 10.625 1.56141 10.625 2.125Z" fill="#F5F7FA"/>
<path d="M8.5 10.625C9.06359 10.625 9.60409 10.4011 10.0026 10.0026C10.4011 9.60409 10.625 9.06359 10.625 8.5C10.625 7.93641 10.4011 7.39591 10.0026 6.9974C9.60409 6.59888 9.06359 6.375 8.5 6.375C7.93641 6.375 7.39591 6.59888 6.9974 6.9974C6.59888 7.39591 6.375 7.93641 6.375 8.5C6.375 9.06359 6.59888 9.60409 6.9974 10.0026C7.39591 10.4011 7.93641 10.625 8.5 10.625Z" fill="#F5F7FA"/>
<path d="M10.625 14.875C10.625 15.4386 10.4011 15.9791 10.0026 16.3776C9.60409 16.7761 9.06359 17 8.5 17C7.93641 17 7.39591 16.7761 6.9974 16.3776C6.59888 15.9791 6.375 15.4386 6.375 14.875C6.375 14.3114 6.59888 13.7709 6.9974 13.3724C7.39591 12.9739 7.93641 12.75 8.5 12.75C9.06359 12.75 9.60409 12.9739 10.0026 13.3724C10.4011 13.7709 10.625 14.3114 10.625 14.875Z" fill="#F5F7FA"/>
<path d="M14.875 4.25C15.4386 4.25 15.9791 4.02612 16.3776 3.6276C16.7761 3.22909 17 2.68859 17 2.125C17 1.56141 16.7761 1.02091 16.3776 0.622398C15.9791 0.223883 15.4386 0 14.875 0C14.3114 0 13.7709 0.223883 13.3724 0.622398C12.9739 1.02091 12.75 1.56141 12.75 2.125C12.75 2.68859 12.9739 3.22909 13.3724 3.6276C13.7709 4.02612 14.3114 4.25 14.875 4.25Z" fill="#F5F7FA"/>
<path d="M17 8.5C17 9.06359 16.7761 9.60409 16.3776 10.0026C15.9791 10.4011 15.4386 10.625 14.875 10.625C14.3114 10.625 13.7709 10.4011 13.3724 10.0026C12.9739 9.60409 12.75 9.06359 12.75 8.5C12.75 7.93641 12.9739 7.39591 13.3724 6.9974C13.7709 6.59888 14.3114 6.375 14.875 6.375C15.4386 6.375 15.9791 6.59888 16.3776 6.9974C16.7761 7.39591 17 7.93641 17 8.5Z" fill="#F5F7FA"/>
<path d="M14.875 17C15.4386 17 15.9791 16.7761 16.3776 16.3776C16.7761 15.9791 17 15.4386 17 14.875C17 14.3114 16.7761 13.7709 16.3776 13.3724C15.9791 12.9739 15.4386 12.75 14.875 12.75C14.3114 12.75 13.7709 12.9739 13.3724 13.3724C12.9739 13.7709 12.75 14.3114 12.75 14.875C12.75 15.4386 12.9739 15.9791 13.3724 16.3776C13.7709 16.7761 14.3114 17 14.875 17Z" fill="#F5F7FA"/>
</svg>
